<?xml version="1.0" encoding="utf-8"?><svg xmlns="http://www.w3.org/2000/svg" xmlns:xlink="http://www.w3.org/1999/xlink" width="1920" height="400" preserveAspectRatio="xMidYMid" viewBox="0 0 1920 400" style="z-index:1;margin-right:-2px;display:block;background-repeat-y:initial;background-repeat-x:initial;background-color:rgb(255, 255, 255);animation-play-state:paused" ><g transform="translate(960,200) scale(1,1) translate(-960,-200)" style="transform:matrix(1, 0, 0, 1, 0, 0);animation-play-state:paused" ><linearGradient id="lg-0.8777582173068976" x1="0" x2="1" y1="0" y2="0" style="animation-play-state:paused" ><stop stop-color="#ff00ff" offset="0" style="animation-play-state:paused" ></stop>

  
<stop stop-color="#00ffff" offset="1" style="animation-play-state:paused" ></stop></linearGradient>
<path d="M 0 0 L 0 338.544 Q 192 388.914 384 350.649 T 768 264.658 T 1152 267.538 T 1536 248.832 T 1920 190.012 L 1920 0 Z" fill="url(#lg-0.8777582173068976)" opacity="0.4" style="opacity:0.4;animation-play-state:paused" ></path>
<path d="M 0 0 L 0 347.81 Q 192 361.644 384 334.559 T 768 276.156 T 1152 250.938 T 1536 208.973 T 1920 200.362 L 1920 0 Z" fill="url(#lg-0.8777582173068976)" opacity="0.4" style="opacity:0.4;animation-play-state:paused" ></path>
<path d="M 0 0 L 0 385.342 Q 192 345.556 384 311.299 T 768 299.362 T 1152 277.804 T 1536 210.128 T 1920 198.556 L 1920 0 Z" fill="url(#lg-0.8777582173068976)" opacity="0.4" style="opacity:0.4;animation-play-state:paused" ></path>
<path d="M 0 0 L 0 347.257 Q 192 384.352 384 338.587 T 768 270.912 T 1152 249.789 T 1536 213.806 T 1920 149.955 L 1920 0 Z" fill="url(#lg-0.8777582173068976)" opacity="0.4" style="opacity:0.4;animation-play-state:paused" ></path>
<path d="M 0 0 L 0 391.308 Q 192 326.302 384 302.801 T 768 306.712 T 1152 239.578 T 1536 216.973 T 1920 146.949 L 1920 0 Z" fill="url(#lg-0.8777582173068976)" opacity="0.4" style="opacity:0.4;animation-play-state:paused" ></path></g></svg>